<?xml version="1.0" encoding="UTF-8" standalone="no"?>
<!DOCTYPE svg PUBLIC "-
 "http:
<!-- Generated by graphviz version 12.2.0 (20241103.1931)
 -->
<!-- Title: classes_tinker Pages: 1 -->
<svg width="1608pt" height="696pt"
 viewBox="0.00 0.00 1608.12 696.00" xmlns="http:
<g id="graph0" class="graph" transform="scale(1 1) rotate(0) translate(4 692)">
<title>classes_tinker</title>
<polygon fill="white" stroke="none" points="-4,4 -4,-692 1604.12,-692 1604.12,4 -4,4"/>
<!-- builtins.bool -->
<g id="node1" class="node">
<title>builtins.bool</title>
<polygon fill="grey" stroke="grey" points="1278.12,-0.5 1278.12,-117 1393.12,-117 1393.12,-0.5 1278.12,-0.5"/>
<text text-anchor="start" x="1301.5" y="-99.7" font-family="Times New Roman,serif" font-size="14.00">builtins.bool</text>
<polyline fill="none" stroke="grey" points="1278.12,-92.5 1393.12,-92.5"/>
<polyline fill="none" stroke="grey" points="1278.12,-92.5 1393.12,-92.5"/>
<text text-anchor="start" x="1286.12" y="-76.2" font-family="Times New Roman,serif" font-style="italic" font-size="14.00">as_integer_ratio</text>
<text text-anchor="start" x="1376.12" y="-76.2" font-family="Times New Roman,serif" font-size="14.00">()</text>
<text text-anchor="start" x="1286.12" y="-62.2" font-family="Times New Roman,serif" font-style="italic" font-size="14.00">bit_count</text>
<text text-anchor="start" x="1337.12" y="-62.2" font-family="Times New Roman,serif" font-size="14.00">()</text>
<text text-anchor="start" x="1286.12" y="-48.2" font-family="Times New Roman,serif" font-style="italic" font-size="14.00">bit_length</text>
<text text-anchor="start" x="1340.88" y="-48.2" font-family="Times New Roman,serif" font-size="14.00">()</text>
<text text-anchor="start" x="1286.12" y="-34.2" font-family="Times New Roman,serif" font-style="italic" font-size="14.00">conjugate</text>
<text text-anchor="start" x="1339.38" y="-34.2" font-family="Times New Roman,serif" font-size="14.00">()</text>
<text text-anchor="start" x="1286.12" y="-20.2" font-family="Times New Roman,serif" font-style="italic" font-size="14.00">is_integer</text>
<text text-anchor="start" x="1340.12" y="-20.2" font-family="Times New Roman,serif" font-size="14.00">()</text>
<text text-anchor="start" x="1286.12" y="-6.2" font-family="Times New Roman,serif" font-style="italic" font-size="14.00">to_bytes</text>
<text text-anchor="start" x="1331.12" y="-6.2" font-family="Times New Roman,serif" font-size="14.00">()</text>
</g>
<!-- builtins.int -->
<g id="node5" class="node">
<title>builtins.int</title>
<polygon fill="grey" stroke="grey" points="1079.12,-190 1079.12,-306.5 1194.12,-306.5 1194.12,-190 1079.12,-190"/>
<text text-anchor="start" x="1107.38" y="-289.2" font-family="Times New Roman,serif" font-size="14.00">builtins.int</text>
<polyline fill="none" stroke="grey" points="1079.12,-282 1194.12,-282"/>
<polyline fill="none" stroke="grey" points="1079.12,-282 1194.12,-282"/>
<text text-anchor="start" x="1087.12" y="-265.7" font-family="Times New Roman,serif" font-style="italic" font-size="14.00">as_integer_ratio</text>
<text text-anchor="start" x="1177.12" y="-265.7" font-family="Times New Roman,serif" font-size="14.00">()</text>
<text text-anchor="start" x="1087.12" y="-251.7" font-family="Times New Roman,serif" font-style="italic" font-size="14.00">bit_count</text>
<text text-anchor="start" x="1138.12" y="-251.7" font-family="Times New Roman,serif" font-size="14.00">()</text>
<text text-anchor="start" x="1087.12" y="-237.7" font-family="Times New Roman,serif" font-style="italic" font-size="14.00">bit_length</text>
<text text-anchor="start" x="1141.88" y="-237.7" font-family="Times New Roman,serif" font-size="14.00">()</text>
<text text-anchor="start" x="1087.12" y="-223.7" font-family="Times New Roman,serif" font-style="italic" font-size="14.00">conjugate</text>
<text text-anchor="start" x="1140.38" y="-223.7" font-family="Times New Roman,serif" font-size="14.00">()</text>
<text text-anchor="start" x="1087.12" y="-209.7" font-family="Times New Roman,serif" font-style="italic" font-size="14.00">is_integer</text>
<text text-anchor="start" x="1141.12" y="-209.7" font-family="Times New Roman,serif" font-size="14.00">()</text>
<text text-anchor="start" x="1087.12" y="-195.7" font-family="Times New Roman,serif" font-style="italic" font-size="14.00">to_bytes</text>
<text text-anchor="start" x="1132.12" y="-195.7" font-family="Times New Roman,serif" font-size="14.00">()</text>
</g>
<!-- builtins.bool&#45;&gt;builtins.int -->
<g id="edge1" class="edge">
<title>builtins.bool&#45;&gt;builtins.int</title>
<path fill="none" stroke="black" d="M1277.8,-114.23C1254.29,-136.38 1227,-162.1 1202.71,-184.99"/>
<polygon fill="none" stroke="black" points="1200.58,-182.19 1195.7,-191.59 1205.38,-187.28 1200.58,-182.19"/>
</g>
<!-- device&#45;manager&#45;backend.app.FlaskDiscoveryServer -->
<g id="node11" class="node">
<title>device&#45;manager&#45;backend.app.FlaskDiscoveryServer</title>
<polygon fill="#77aadd" stroke="#77aadd" points="291.88,-395 291.88,-600.5 591.38,-600.5 591.38,-395 291.88,-395"/>
<text text-anchor="start" x="299.88" y="-583.2" font-family="Times New Roman,serif" font-size="14.00">device&#45;manager&#45;backend.app.FlaskDiscoveryServer</text>
<polyline fill="none" stroke="#77aadd" points="291.88,-576 591.38,-576"/>
<text text-anchor="start" x="395.5" y="-558.7" font-family="Times New Roman,serif" font-size="14.00">app</text>
<text text-anchor="start" x="395.5" y="-542.2" font-family="Times New Roman,serif" font-size="14.00">devices</text>
<text text-anchor="start" x="395.5" y="-525.7" font-family="Times New Roman,serif" font-size="14.00">discovery_server</text>
<text text-anchor="start" x="395.5" y="-509.2" font-family="Times New Roman,serif" font-size="14.00">flask_port</text>
<text text-anchor="start" x="395.5" y="-492.7" font-family="Times New Roman,serif" font-size="14.00">running</text>
<polyline fill="none" stroke="#77aadd" points="291.88,-485.5 591.38,-485.5"/>
<text text-anchor="start" x="376" y="-468.2" font-family="Times New Roman,serif" font-size="14.00">setup_routes()</text>
<text text-anchor="start" x="376" y="-451.7" font-family="Times New Roman,serif" font-size="14.00">start()</text>
<text text-anchor="start" x="376" y="-435.2" font-family="Times New Roman,serif" font-size="14.00">start_discovery_server()</text>
<text text-anchor="start" x="376" y="-418.7" font-family="Times New Roman,serif" font-size="14.00">stop()</text>
<text text-anchor="start" x="376" y="-402.2" font-family="Times New Roman,serif" font-size="14.00">update_devices()</text>
</g>
<!-- builtins.bool&#45;&gt;device&#45;manager&#45;backend.app.FlaskDiscoveryServer -->
<g id="edge13" class="edge">
<title>builtins.bool&#45;&gt;device&#45;manager&#45;backend.app.FlaskDiscoveryServer</title>
<path fill="none" stroke="black" d="M1277.68,-67.96C1135.57,-90.68 764.37,-166.06 530.62,-360 521.82,-367.31 513.58,-375.71 505.94,-384.69"/>
<polygon fill="black" stroke="black" points="506.01,-384.6 505.34,-391.78 498.46,-393.92 499.13,-386.74 506.01,-384.6"/>
<text text-anchor="middle" x="944.32" y="-243.2" font-family="Times New Roman,serif" font-size="14.00" fill="green">running</text>
</g>
<!-- builtins.bool&#45;&gt;device&#45;manager&#45;backend.app.FlaskDiscoveryServer -->
<g id="edge14" class="edge">
<title>builtins.bool&#45;&gt;device&#45;manager&#45;backend.app.FlaskDiscoveryServer</title>
<path fill="none" stroke="black" d="M1277.85,-60.9C1076.72,-65.51 416.02,-85.79 353.62,-154.5 297.23,-216.6 326.18,-310 365.4,-383.54"/>
<polygon fill="black" stroke="black" points="365.31,-383.39 371.7,-386.73 371.07,-393.92 364.68,-390.57 365.31,-383.39"/>
<text text-anchor="middle" x="374.62" y="-243.2" font-family="Times New Roman,serif" font-size="14.00" fill="green">running</text>
</g>
<!-- device&#45;manager&#45;backend.server.DiscoveryServer -->
<g id="node13" class="node">
<title>device&#45;manager&#45;backend.server.DiscoveryServer</title>
<polygon fill="#77aadd" stroke="#77aadd" points="1317.12,-403.25 1317.12,-592.25 1600.12,-592.25 1600.12,-403.25 1317.12,-403.25"/>
<text text-anchor="start" x="1325.12" y="-574.95" font-family="Times New Roman,serif" font-size="14.00">device&#45;manager&#45;backend.server.DiscoveryServer</text>
<polyline fill="none" stroke="#77aadd" points="1317.12,-567.75 1600.12,-567.75"/>
<text text-anchor="start" x="1403.88" y="-550.45" font-family="Times New Roman,serif" font-size="14.00">broadcast_port</text>
<text text-anchor="start" x="1403.88" y="-533.95" font-family="Times New Roman,serif" font-size="14.00">clients</text>
<text text-anchor="start" x="1403.88" y="-517.45" font-family="Times New Roman,serif" font-size="14.00">running</text>
<text text-anchor="start" x="1403.88" y="-500.95" font-family="Times New Roman,serif" font-size="14.00">tcp_port</text>
<text text-anchor="start" x="1403.88" y="-484.45" font-family="Times New Roman,serif" font-size="14.00">tcp_thread : Thread</text>
<text text-anchor="start" x="1403.88" y="-467.95" font-family="Times New Roman,serif" font-size="14.00">udp_thread : Thread</text>
<polyline fill="none" stroke="#77aadd" points="1317.12,-460.75 1600.12,-460.75"/>
<text text-anchor="start" x="1405.38" y="-443.45" font-family="Times New Roman,serif" font-size="14.00">get_active_clients()</text>
<text text-anchor="start" x="1405.38" y="-426.95" font-family="Times New Roman,serif" font-size="14.00">start()</text>
<text text-anchor="start" x="1405.38" y="-410.45" font-family="Times New Roman,serif" font-size="14.00">stop()</text>
</g>
<!-- builtins.bool&#45;&gt;device&#45;manager&#45;backend.server.DiscoveryServer -->
<g id="edge15" class="edge">
<title>builtins.bool&#45;&gt;device&#45;manager&#45;backend.server.DiscoveryServer</title>
<path fill="none" stroke="black" d="M1344.99,-117.21C1357.21,-188.1 1379.52,-303.9 1400.62,-342 1406.11,-351.9 1412.86,-350.27 1418.62,-360 1424.31,-369.59 1429.23,-380.03 1433.48,-390.74"/>
<polygon fill="black" stroke="black" points="1433.5,-390.81 1439.34,-395.05 1437.68,-402.06 1431.84,-397.83 1433.5,-390.81"/>
<text text-anchor="middle" x="1421.62" y="-243.2" font-family="Times New Roman,serif" font-size="14.00" fill="green">running</text>
</g>
<!-- builtins.bool&#45;&gt;device&#45;manager&#45;backend.server.DiscoveryServer -->
<g id="edge16" class="edge">
<title>builtins.bool&#45;&gt;device&#45;manager&#45;backend.server.DiscoveryServer</title>
<path fill="none" stroke="black" d="M1393.62,-96.8C1412.68,-112.18 1431.75,-131.78 1442.62,-154.5 1477.62,-227.61 1479.89,-319.87 1474.36,-390.16"/>
<polygon fill="black" stroke="black" points="1474.36,-390.17 1477.83,-396.5 1473.32,-402.13 1469.86,-395.8 1474.36,-390.17"/>
<text text-anchor="middle" x="1497.66" y="-243.2" font-family="Times New Roman,serif" font-size="14.00" fill="green">running</text>
</g>
<!-- builtins.bool&#45;&gt;device&#45;manager&#45;backend.server.DiscoveryServer -->
<g id="edge17" class="edge">
<title>builtins.bool&#45;&gt;device&#45;manager&#45;backend.server.DiscoveryServer</title>
<path fill="none" stroke="black" d="M1393.52,-72.3C1436.84,-85.05 1493.14,-109.55 1520.62,-154.5 1564.11,-225.63 1542.66,-319.58 1513.66,-391.05"/>
<polygon fill="black" stroke="black" points="1513.74,-390.87 1515.12,-397.95 1509.11,-401.94 1507.74,-394.86 1513.74,-390.87"/>
<text text-anchor="middle" x="1566.32" y="-243.2" font-family="Times New Roman,serif" font-size="14.00" fill="green">running</text>
</g>
<!-- builtins.int.denominator -->
<g id="node2" class="node">
<title>builtins.int.denominator</title>
<polygon fill="grey" stroke="grey" points="0,-473.25 0,-522.25 129.25,-522.25 129.25,-473.25 0,-473.25"/>
<text text-anchor="start" x="8" y="-504.95" font-family="Times New Roman,serif" font-size="14.00">builtins.denominator</text>
<polyline fill="none" stroke="grey" points="0,-497.75 129.25,-497.75"/>
<polyline fill="none" stroke="grey" points="0,-497.75 129.25,-497.75"/>
<text text-anchor="start" x="62.75" y="-480.45" font-family="Times New Roman,serif" font-size="14.00"> </text>
</g>
<!-- builtins.object -->
<g id="node8" class="node">
<title>builtins.object</title>
<polygon fill="grey" stroke="grey" points="659,-638.5 659,-687.5 752.25,-687.5 752.25,-638.5 659,-638.5"/>
<text text-anchor="start" x="667" y="-670.2" font-family="Times New Roman,serif" font-size="14.00">builtins.object</text>
<polyline fill="none" stroke="grey" points="659,-663 752.25,-663"/>
<polyline fill="none" stroke="grey" points="659,-663 752.25,-663"/>
<text text-anchor="start" x="703.75" y="-645.7" font-family="Times New Roman,serif" font-size="14.00"> </text>
</g>
<!-- builtins.int.denominator&#45;&gt;builtins.object -->
<g id="edge4" class="edge">
<title>builtins.int.denominator&#45;&gt;builtins.object</title>
<path fill="none" stroke="black" d="M72.74,-522.74C83.82,-551.38 106.64,-598.13 143.62,-620 186.23,-645.19 512.62,-656.8 647.54,-660.56"/>
<polygon fill="none" stroke="black" points="647.23,-664.05 657.32,-660.83 647.42,-657.05 647.23,-664.05"/>
</g>
<!-- builtins.dict -->
<g id="node3" class="node">
<title>builtins.dict</title>
<polygon fill="grey" stroke="grey" points="1259.38,-162 1259.38,-334.5 1339.88,-334.5 1339.88,-162 1259.38,-162"/>
<text text-anchor="start" x="1267.38" y="-317.2" font-family="Times New Roman,serif" font-size="14.00">builtins.dict</text>
<polyline fill="none" stroke="grey" points="1259.38,-310 1339.88,-310"/>
<polyline fill="none" stroke="grey" points="1259.38,-310 1339.88,-310"/>
<text text-anchor="start" x="1268.88" y="-293.7" font-family="Times New Roman,serif" font-style="italic" font-size="14.00">clear</text>
<text text-anchor="start" x="1296.62" y="-293.7" font-family="Times New Roman,serif" font-size="14.00">()</text>
<text text-anchor="start" x="1268.88" y="-279.7" font-family="Times New Roman,serif" font-style="italic" font-size="14.00">copy</text>
<text text-anchor="start" x="1294.38" y="-279.7" font-family="Times New Roman,serif" font-size="14.00">()</text>
<text text-anchor="start" x="1268.88" y="-265.7" font-family="Times New Roman,serif" font-style="italic" font-size="14.00">get</text>
<text text-anchor="start" x="1285.38" y="-265.7" font-family="Times New Roman,serif" font-size="14.00">()</text>
<text text-anchor="start" x="1268.88" y="-251.7" font-family="Times New Roman,serif" font-style="italic" font-size="14.00">items</text>
<text text-anchor="start" x="1297.38" y="-251.7" font-family="Times New Roman,serif" font-size="14.00">()</text>
<text text-anchor="start" x="1268.88" y="-237.7" font-family="Times New Roman,serif" font-style="italic" font-size="14.00">keys</text>
<text text-anchor="start" x="1292.12" y="-237.7" font-family="Times New Roman,serif" font-size="14.00">()</text>
<text text-anchor="start" x="1268.88" y="-223.7" font-family="Times New Roman,serif" font-style="italic" font-size="14.00">pop</text>
<text text-anchor="start" x="1289.12" y="-223.7" font-family="Times New Roman,serif" font-size="14.00">()</text>
<text text-anchor="start" x="1268.88" y="-209.7" font-family="Times New Roman,serif" font-style="italic" font-size="14.00">popitem</text>
<text text-anchor="start" x="1312.38" y="-209.7" font-family="Times New Roman,serif" font-size="14.00">()</text>
<text text-anchor="start" x="1268.88" y="-195.7" font-family="Times New Roman,serif" font-style="italic" font-size="14.00">setdefault</text>
<text text-anchor="start" x="1321.38" y="-195.7" font-family="Times New Roman,serif" font-size="14.00">()</text>
<text text-anchor="start" x="1268.88" y="-181.7" font-family="Times New Roman,serif" font-style="italic" font-size="14.00">update</text>
<text text-anchor="start" x="1305.62" y="-181.7" font-family="Times New Roman,serif" font-size="14.00">()</text>
<text text-anchor="start" x="1268.88" y="-167.7" font-family="Times New Roman,serif" font-style="italic" font-size="14.00">values</text>
<text text-anchor="start" x="1303.38" y="-167.7" font-family="Times New Roman,serif" font-size="14.00">()</text>
</g>
<!-- builtins.dict&#45;&gt;builtins.object -->
<g id="edge2" class="edge">
<title>builtins.dict&#45;&gt;builtins.object</title>
<path fill="none" stroke="black" d="M1297.92,-334.93C1295.11,-432.93 1287.86,-582.35 1269.62,-601 1234.71,-636.71 901.05,-654.13 763.97,-659.82"/>
<polygon fill="none" stroke="black" points="763.86,-656.32 754.01,-660.23 764.15,-663.32 763.86,-656.32"/>
</g>
<!-- builtins.dict&#45;&gt;device&#45;manager&#45;backend.server.DiscoveryServer -->
<g id="edge18" class="edge">
<title>builtins.dict&#45;&gt;device&#45;manager&#45;backend.server.DiscoveryServer</title>
<path fill="none" stroke="black" d="M1340.36,-312.67C1355.96,-336.94 1374.19,-365.32 1391.6,-392.42"/>
<polygon fill="black" stroke="black" points="1391.51,-392.28 1398.12,-395.17 1398,-402.38 1391.39,-399.49 1391.51,-392.28"/>
<text text-anchor="middle" x="1396.75" y="-363.2" font-family="Times New Roman,serif" font-size="14.00" fill="green">clients</text>
</g>
<!-- builtins.int.imag -->
<g id="node4" class="node">
<title>builtins.int.imag</title>
<polygon fill="grey" stroke="grey" points="185.62,-473.25 185.62,-522.25 273.62,-522.25 273.62,-473.25 185.62,-473.25"/>
<text text-anchor="start" x="193.62" y="-504.95" font-family="Times New Roman,serif" font-size="14.00">builtins.imag</text>
<polyline fill="none" stroke="grey" points="185.62,-497.75 273.62,-497.75"/>
<polyline fill="none" stroke="grey" points="185.62,-497.75 273.62,-497.75"/>
<text text-anchor="start" x="227.75" y="-480.45" font-family="Times New Roman,serif" font-size="14.00"> </text>
</g>
<!-- builtins.int.imag&#45;&gt;builtins.object -->
<g id="edge5" class="edge">
<title>builtins.int.imag&#45;&gt;builtins.object</title>
<path fill="none" stroke="black" d="M235.14,-522.39C242.01,-546.27 256.22,-582.23 282.62,-601 340.13,-641.87 545.63,-655.68 647.51,-660.08"/>
<polygon fill="none" stroke="black" points="647.16,-663.57 657.3,-660.49 647.45,-656.58 647.16,-663.57"/>
</g>
<!-- builtins.int&#45;&gt;builtins.object -->
<g id="edge3" class="edge">
<title>builtins.int&#45;&gt;builtins.object</title>
<path fill="none" stroke="black" d="M1078.85,-257.39C959.42,-275.53 691.99,-323.35 638.62,-394.5 583.56,-467.92 601.53,-517.05 638.62,-601 643.59,-612.24 651.76,-622.29 660.72,-630.85"/>
<polygon fill="none" stroke="black" points="658.16,-633.25 667.97,-637.26 662.8,-628.01 658.16,-633.25"/>
</g>
<!-- builtins.int&#45;&gt;device&#45;manager&#45;backend.app.FlaskDiscoveryServer -->
<g id="edge20" class="edge">
<title>builtins.int&#45;&gt;device&#45;manager&#45;backend.app.FlaskDiscoveryServer</title>
<path fill="none" stroke="black" d="M1078.99,-255.01C949.49,-268.77 639.88,-306.43 550.88,-360 539.21,-367.02 528.29,-375.77 518.2,-385.43"/>
<polygon fill="none" stroke="black" points="518.26,-385.37 516.87,-392.44 509.81,-393.89 511.19,-386.81 518.26,-385.37"/>
<text text-anchor="middle" x="578.25" y="-363.2" font-family="Times New Roman,serif" font-size="14.00" fill="green">flask_port</text>
</g>
<!-- device&#45;manager&#45;backend.client.DiscoveryClient -->
<g id="node12" class="node">
<title>device&#45;manager&#45;backend.client.DiscoveryClient</title>
<polygon fill="#77aadd" stroke="#77aadd" points="982.38,-461 982.38,-534.5 1260.88,-534.5 1260.88,-461 982.38,-461"/>
<text text-anchor="start" x="990.38" y="-517.2" font-family="Times New Roman,serif" font-size="14.00">device&#45;manager&#45;backend.client.DiscoveryClient</text>
<polyline fill="none" stroke="#77aadd" points="982.38,-510 1260.88,-510"/>
<text text-anchor="start" x="1081.12" y="-492.7" font-family="Times New Roman,serif" font-size="14.00">discovery_port</text>
<polyline fill="none" stroke="#77aadd" points="982.38,-485.5 1260.88,-485.5"/>
<text text-anchor="start" x="1105.5" y="-468.2" font-family="Times New Roman,serif" font-size="14.00">start()</text>
</g>
<!-- builtins.int&#45;&gt;device&#45;manager&#45;backend.client.DiscoveryClient -->
<g id="edge21" class="edge">
<title>builtins.int&#45;&gt;device&#45;manager&#45;backend.client.DiscoveryClient</title>
<path fill="none" stroke="black" d="M1107.7,-306.81C1100.69,-323.54 1094.19,-342.13 1090.62,-360 1084.75,-389.44 1091.73,-422.25 1100.54,-448.35"/>
<polygon fill="none" stroke="black" points="1100.58,-448.45 1106.38,-452.73 1104.66,-459.73 1098.86,-455.45 1100.58,-448.45"/>
<text text-anchor="middle" x="1131.12" y="-363.2" font-family="Times New Roman,serif" font-size="14.00" fill="green">discovery_port</text>
</g>
<!-- builtins.int&#45;&gt;device&#45;manager&#45;backend.server.DiscoveryServer -->
<g id="edge22" class="edge">
<title>builtins.int&#45;&gt;device&#45;manager&#45;backend.server.DiscoveryServer</title>
<path fill="none" stroke="black" d="M1163.38,-306.72C1177.16,-331.07 1196.02,-358.03 1219.38,-376.5 1237.98,-391.21 1247.96,-384.83 1269.62,-394.5 1281.37,-399.74 1293.38,-405.43 1305.37,-411.35"/>
<polygon fill="none" stroke="black" points="1305.31,-411.32 1312.47,-410.42 1316.05,-416.68 1308.89,-417.57 1305.31,-411.32"/>
<text text-anchor="middle" x="1259.5" y="-363.2" font-family="Times New Roman,serif" font-size="14.00" fill="green">broadcast_port</text>
</g>
<!-- builtins.int&#45;&gt;device&#45;manager&#45;backend.server.DiscoveryServer -->
<g id="edge23" class="edge">
<title>builtins.int&#45;&gt;device&#45;manager&#45;backend.server.DiscoveryServer</title>
<path fill="none" stroke="black" d="M1194.56,-302.55C1211.77,-316.63 1231.22,-330.96 1250.62,-342 1270.79,-353.48 1279.62,-348.25 1299.62,-360 1316.91,-370.16 1334.12,-382.27 1350.48,-395.03"/>
<polygon fill="none" stroke="black" points="1350.46,-395.02 1357.65,-395.62 1359.85,-402.49 1352.66,-401.88 1350.46,-395.02"/>
<text text-anchor="middle" x="1346.11" y="-363.2" font-family="Times New Roman,serif" font-size="14.00" fill="green">tcp_port</text>
</g>
<!-- builtins.list -->
<g id="node6" class="node">
<title>builtins.list</title>
<polygon fill="grey" stroke="grey" points="404.25,-155 404.25,-341.5 481,-341.5 481,-155 404.25,-155"/>
<text text-anchor="start" x="412.25" y="-324.2" font-family="Times New Roman,serif" font-size="14.00">builtins.list</text>
<polyline fill="none" stroke="grey" points="404.25,-317 481,-317"/>
<polyline fill="none" stroke="grey" points="404.25,-317 481,-317"/>
<text text-anchor="start" x="418.25" y="-300.7" font-family="Times New Roman,serif" font-style="italic" font-size="14.00">append</text>
<text text-anchor="start" x="458" y="-300.7" font-family="Times New Roman,serif" font-size="14.00">()</text>
<text text-anchor="start" x="418.25" y="-286.7" font-family="Times New Roman,serif" font-style="italic" font-size="14.00">clear</text>
<text text-anchor="start" x="446" y="-286.7" font-family="Times New Roman,serif" font-size="14.00">()</text>
<text text-anchor="start" x="418.25" y="-272.7" font-family="Times New Roman,serif" font-style="italic" font-size="14.00">copy</text>
<text text-anchor="start" x="443.75" y="-272.7" font-family="Times New Roman,serif" font-size="14.00">()</text>
<text text-anchor="start" x="418.25" y="-258.7" font-family="Times New Roman,serif" font-style="italic" font-size="14.00">count</text>
<text text-anchor="start" x="448.25" y="-258.7" font-family="Times New Roman,serif" font-size="14.00">()</text>
<text text-anchor="start" x="418.25" y="-244.7" font-family="Times New Roman,serif" font-style="italic" font-size="14.00">extend</text>
<text text-anchor="start" x="453.5" y="-244.7" font-family="Times New Roman,serif" font-size="14.00">()</text>
<text text-anchor="start" x="418.25" y="-230.7" font-family="Times New Roman,serif" font-style="italic" font-size="14.00">index</text>
<text text-anchor="start" x="447.5" y="-230.7" font-family="Times New Roman,serif" font-size="14.00">()</text>
<text text-anchor="start" x="418.25" y="-216.7" font-family="Times New Roman,serif" font-style="italic" font-size="14.00">insert</text>
<text text-anchor="start" x="449" y="-216.7" font-family="Times New Roman,serif" font-size="14.00">()</text>
<text text-anchor="start" x="418.25" y="-202.7" font-family="Times New Roman,serif" font-style="italic" font-size="14.00">pop</text>
<text text-anchor="start" x="438.5" y="-202.7" font-family="Times New Roman,serif" font-size="14.00">()</text>
<text text-anchor="start" x="418.25" y="-188.7" font-family="Times New Roman,serif" font-style="italic" font-size="14.00">remove</text>
<text text-anchor="start" x="458" y="-188.7" font-family="Times New Roman,serif" font-size="14.00">()</text>
<text text-anchor="start" x="418.25" y="-174.7" font-family="Times New Roman,serif" font-style="italic" font-size="14.00">reverse</text>
<text text-anchor="start" x="458" y="-174.7" font-family="Times New Roman,serif" font-size="14.00">()</text>
<text text-anchor="start" x="418.25" y="-160.7" font-family="Times New Roman,serif" font-style="italic" font-size="14.00">sort</text>
<text text-anchor="start" x="439.25" y="-160.7" font-family="Times New Roman,serif" font-size="14.00">()</text>
</g>
<!-- builtins.list&#45;&gt;builtins.object -->
<g id="edge8" class="edge">
<title>builtins.list&#45;&gt;builtins.object</title>
<path fill="none" stroke="black" d="M404.03,-329.38C399.94,-334.03 395.47,-338.31 390.62,-342 312.67,-401.28 237.06,-317.44 176.62,-394.5 148.3,-430.61 146.4,-566.47 176.62,-601 207.25,-635.99 516.43,-653.66 647.45,-659.62"/>
<polygon fill="none" stroke="black" points="647.15,-663.11 657.3,-660.06 647.47,-656.12 647.15,-663.11"/>
</g>
<!-- builtins.list&#45;&gt;device&#45;manager&#45;backend.app.FlaskDiscoveryServer -->
<g id="edge19" class="edge">
<title>builtins.list&#45;&gt;device&#45;manager&#45;backend.app.FlaskDiscoveryServer</title>
<path fill="none" stroke="black" d="M442.25,-341.76C442.2,-354.87 442.14,-368.48 442.09,-381.95"/>
<polygon fill="black" stroke="black" points="442.09,-381.9 446.06,-387.91 442.04,-393.9 438.06,-387.88 442.09,-381.9"/>
<text text-anchor="middle" x="462.4" y="-363.2" font-family="Times New Roman,serif" font-size="14.00" fill="green">devices</text>
</g>
<!-- builtins.int.numerator -->
<g id="node7" class="node">
<title>builtins.int.numerator</title>
<polygon fill="grey" stroke="grey" points="647.38,-473.25 647.38,-522.25 763.88,-522.25 763.88,-473.25 647.38,-473.25"/>
<text text-anchor="start" x="655.38" y="-504.95" font-family="Times New Roman,serif" font-size="14.00">builtins.numerator</text>
<polyline fill="none" stroke="grey" points="647.38,-497.75 763.88,-497.75"/>
<polyline fill="none" stroke="grey" points="647.38,-497.75 763.88,-497.75"/>
<text text-anchor="start" x="703.75" y="-480.45" font-family="Times New Roman,serif" font-size="14.00"> </text>
</g>
<!-- builtins.int.numerator&#45;&gt;builtins.object -->
<g id="edge6" class="edge">
<title>builtins.int.numerator&#45;&gt;builtins.object</title>
<path fill="none" stroke="black" d="M705.62,-522.49C705.62,-549.93 705.62,-595.37 705.62,-626.9"/>
<polygon fill="none" stroke="black" points="702.13,-626.72 705.63,-636.72 709.13,-626.72 702.13,-626.72"/>
</g>
<!-- builtins.int.real -->
<g id="node9" class="node">
<title>builtins.int.real</title>
<polygon fill="grey" stroke="grey" points="782.38,-473.25 782.38,-522.25 862.88,-522.25 862.88,-473.25 782.38,-473.25"/>
<text text-anchor="start" x="790.38" y="-504.95" font-family="Times New Roman,serif" font-size="14.00">builtins.real</text>
<polyline fill="none" stroke="grey" points="782.38,-497.75 862.88,-497.75"/>
<polyline fill="none" stroke="grey" points="782.38,-497.75 862.88,-497.75"/>
<text text-anchor="start" x="820.75" y="-480.45" font-family="Times New Roman,serif" font-size="14.00"> </text>
</g>
<!-- builtins.int.real&#45;&gt;builtins.object -->
<g id="edge7" class="edge">
<title>builtins.int.real&#45;&gt;builtins.object</title>
<path fill="none" stroke="black" d="M814,-522.5C805.46,-544.18 791,-576.5 772.62,-601 764.74,-611.51 754.87,-621.66 745.14,-630.56"/>
<polygon fill="none" stroke="black" points="743,-627.79 737.83,-637.03 747.63,-633.03 743,-627.79"/>
</g>
<!-- builtins.type -->
<g id="node10" class="node">
<title>builtins.type</title>
<polygon fill="grey" stroke="grey" points="880.88,-473.25 880.88,-522.25 964.38,-522.25 964.38,-473.25 880.88,-473.25"/>
<text text-anchor="start" x="888.88" y="-504.95" font-family="Times New Roman,serif" font-size="14.00">builtins.type</text>
<polyline fill="none" stroke="grey" points="880.88,-497.75 964.38,-497.75"/>
<polyline fill="none" stroke="grey" points="880.88,-497.75 964.38,-497.75"/>
<text text-anchor="start" x="907.25" y="-481.45" font-family="Times New Roman,serif" font-style="italic" font-size="14.00">mro</text>
<text text-anchor="start" x="929" y="-481.45" font-family="Times New Roman,serif" font-size="14.00">()</text>
</g>
<!-- builtins.type&#45;&gt;builtins.object -->
<g id="edge9" class="edge">
<title>builtins.type&#45;&gt;builtins.object</title>
<path fill="none" stroke="black" d="M916.33,-522.6C909.11,-545.61 895.13,-579.96 871.62,-601 841.49,-627.98 798.41,-643.34 763.68,-651.91"/>
<polygon fill="none" stroke="black" points="763.15,-648.44 754.21,-654.11 764.74,-655.25 763.15,-648.44"/>
</g>
<!-- device&#45;manager&#45;backend.app.FlaskDiscoveryServer&#45;&gt;builtins.object -->
<g id="edge10" class="edge">
<title>device&#45;manager&#45;backend.app.FlaskDiscoveryServer&#45;&gt;builtins.object</title>
<path fill="none" stroke="black" d="M574.11,-600.72C584.58,-607.54 595.16,-614.05 605.62,-620 619.06,-627.64 634.16,-634.7 648.47,-640.76"/>
<polygon fill="none" stroke="black" points="646.75,-643.84 657.33,-644.42 649.42,-637.37 646.75,-643.84"/>
</g>
<!-- device&#45;manager&#45;backend.client.DiscoveryClient&#45;&gt;builtins.object -->
<g id="edge11" class="edge">
<title>device&#45;manager&#45;backend.client.DiscoveryClient&#45;&gt;builtins.object</title>
<path fill="none" stroke="black" d="M1078.93,-534.81C1050.69,-556.93 1011.93,-584.16 973.62,-601 904.76,-631.27 819.09,-647.39 763.42,-655.31"/>
<polygon fill="none" stroke="black" points="763.28,-651.8 753.85,-656.63 764.24,-658.73 763.28,-651.8"/>
</g>
<!-- device&#45;manager&#45;backend.server.DiscoveryServer&#45;&gt;builtins.object -->
<g id="edge12" class="edge">
<title>device&#45;manager&#45;backend.server.DiscoveryServer&#45;&gt;builtins.object</title>
<path fill="none" stroke="black" d="M1354.6,-592.56C1338.12,-603.47 1320.57,-613.13 1302.62,-620 1205.37,-657.22 894.39,-661.9 764.02,-662.18"/>
<polygon fill="none" stroke="black" points="764.23,-658.68 754.23,-662.19 764.23,-665.68 764.23,-658.68"/>
</g>
</g>
</svg>
