<?xml version="1.0" encoding="UTF-8" standalone="no"?>
<!DOCTYPE svg PUBLIC "-
 "http:
<!-- Generated by graphviz version 12.2.0 (20241103.1931)
 -->
<!-- Title: classes_backend Pages: 1 -->
<svg width="2269pt" height="1168pt"
 viewBox="0.00 0.00 2269.17 1168.00" xmlns="http:
<g id="graph0" class="graph" transform="scale(1 1) rotate(0) translate(4 1164)">
<title>classes_backend</title>
<polygon fill="white" stroke="none" points="-4,4 -4,-1164 2265.17,-1164 2265.17,4 -4,4"/>
<!-- _pydatetime.date -->
<g id="node1" class="node">
<title>_pydatetime.date</title>
<polygon fill="grey" stroke="grey" points="758.99,-751.5 758.99,-1072.5 957.99,-1072.5 957.99,-751.5 758.99,-751.5"/>
<text text-anchor="start" x="811.61" y="-1055.2" font-family="Times New Roman,serif" font-size="14.00">_pydatetime.date</text>
<polyline fill="none" stroke="grey" points="758.99,-1048 957.99,-1048"/>
<text text-anchor="start" x="840.86" y="-1030.7" font-family="Times New Roman,serif" font-size="14.00">day</text>
<text text-anchor="start" x="840.86" y="-1014.2" font-family="Times New Roman,serif" font-size="14.00">month</text>
<text text-anchor="start" x="840.86" y="-997.7" font-family="Times New Roman,serif" font-size="14.00">year</text>
<polyline fill="none" stroke="grey" points="758.99,-990.5 957.99,-990.5"/>
<text text-anchor="start" x="766.99" y="-973.2" font-family="Times New Roman,serif" font-size="14.00">ctime()</text>
<text text-anchor="start" x="766.99" y="-956.7" font-family="Times New Roman,serif" font-size="14.00">fromisocalendar(year, week, day)</text>
<text text-anchor="start" x="766.99" y="-940.2" font-family="Times New Roman,serif" font-size="14.00">fromisoformat(date_string)</text>
<text text-anchor="start" x="766.99" y="-923.7" font-family="Times New Roman,serif" font-size="14.00">fromordinal(n)</text>
<text text-anchor="start" x="766.99" y="-907.2" font-family="Times New Roman,serif" font-size="14.00">fromtimestamp(t)</text>
<text text-anchor="start" x="766.99" y="-890.7" font-family="Times New Roman,serif" font-size="14.00">isocalendar()</text>
<text text-anchor="start" x="766.99" y="-874.2" font-family="Times New Roman,serif" font-size="14.00">isoformat()</text>
<text text-anchor="start" x="766.99" y="-857.7" font-family="Times New Roman,serif" font-size="14.00">isoweekday()</text>
<text text-anchor="start" x="766.99" y="-841.2" font-family="Times New Roman,serif" font-size="14.00">replace(year, month, day)</text>
<text text-anchor="start" x="766.99" y="-824.7" font-family="Times New Roman,serif" font-size="14.00">strftime(format)</text>
<text text-anchor="start" x="766.99" y="-808.2" font-family="Times New Roman,serif" font-size="14.00">timetuple()</text>
<text text-anchor="start" x="766.99" y="-791.7" font-family="Times New Roman,serif" font-size="14.00">today()</text>
<text text-anchor="start" x="766.99" y="-775.2" font-family="Times New Roman,serif" font-size="14.00">toordinal()</text>
<text text-anchor="start" x="766.99" y="-758.7" font-family="Times New Roman,serif" font-size="14.00">weekday()</text>
</g>
<!-- builtins.object -->
<g id="node9" class="node">
<title>builtins.object</title>
<polygon fill="grey" stroke="grey" points="536.86,-1110.5 536.86,-1159.5 630.11,-1159.5 630.11,-1110.5 536.86,-1110.5"/>
<text text-anchor="start" x="544.86" y="-1142.2" font-family="Times New Roman,serif" font-size="14.00">builtins.object</text>
<polyline fill="none" stroke="grey" points="536.86,-1135 630.11,-1135"/>
<polyline fill="none" stroke="grey" points="536.86,-1135 630.11,-1135"/>
<text text-anchor="start" x="581.61" y="-1117.7" font-family="Times New Roman,serif" font-size="14.00"> </text>
</g>
<!-- _pydatetime.date&#45;&gt;builtins.object -->
<g id="edge1" class="edge">
<title>_pydatetime.date&#45;&gt;builtins.object</title>
<path fill="none" stroke="black" d="M758.85,-1065.22C755.79,-1067.92 752.67,-1070.52 749.49,-1073 717.81,-1097.71 675.15,-1113.09 641.01,-1122.23"/>
<polygon fill="none" stroke="black" points="640.54,-1118.74 631.72,-1124.61 642.27,-1125.52 640.54,-1118.74"/>
</g>
<!-- _pydatetime.datetime -->
<g id="node2" class="node">
<title>_pydatetime.datetime</title>
<polygon fill="grey" stroke="grey" points="661.49,-170.5 661.49,-640 1055.49,-640 1055.49,-170.5 661.49,-170.5"/>
<text text-anchor="start" x="799.24" y="-622.7" font-family="Times New Roman,serif" font-size="14.00">_pydatetime.datetime</text>
<polyline fill="none" stroke="grey" points="661.49,-615.5 1055.49,-615.5"/>
<text text-anchor="start" x="823.61" y="-598.2" font-family="Times New Roman,serif" font-size="14.00">fold</text>
<text text-anchor="start" x="823.61" y="-581.7" font-family="Times New Roman,serif" font-size="14.00">hour</text>
<text text-anchor="start" x="823.61" y="-565.2" font-family="Times New Roman,serif" font-size="14.00">microsecond</text>
<text text-anchor="start" x="823.61" y="-548.7" font-family="Times New Roman,serif" font-size="14.00">minute</text>
<text text-anchor="start" x="823.61" y="-532.2" font-family="Times New Roman,serif" font-size="14.00">second</text>
<text text-anchor="start" x="823.61" y="-515.7" font-family="Times New Roman,serif" font-size="14.00">tzinfo</text>
<polyline fill="none" stroke="grey" points="661.49,-508.5 1055.49,-508.5"/>
<text text-anchor="start" x="669.49" y="-491.2" font-family="Times New Roman,serif" font-size="14.00">astimezone(tz)</text>
<text text-anchor="start" x="669.49" y="-474.7" font-family="Times New Roman,serif" font-size="14.00">combine(date, time, tzinfo)</text>
<text text-anchor="start" x="669.49" y="-458.2" font-family="Times New Roman,serif" font-size="14.00">ctime()</text>
<text text-anchor="start" x="669.49" y="-441.7" font-family="Times New Roman,serif" font-size="14.00">date()</text>
<text text-anchor="start" x="669.49" y="-425.2" font-family="Times New Roman,serif" font-size="14.00">dst()</text>
<text text-anchor="start" x="669.49" y="-408.7" font-family="Times New Roman,serif" font-size="14.00">fromisoformat(date_string)</text>
<text text-anchor="start" x="669.49" y="-392.2" font-family="Times New Roman,serif" font-size="14.00">fromtimestamp(timestamp, tz)</text>
<text text-anchor="start" x="669.49" y="-375.7" font-family="Times New Roman,serif" font-size="14.00">isoformat(sep, timespec)</text>
<text text-anchor="start" x="669.49" y="-359.2" font-family="Times New Roman,serif" font-size="14.00">now(tz)</text>
<text text-anchor="start" x="669.49" y="-342.7" font-family="Times New Roman,serif" font-size="14.00">replace(year, month, day, hour, minute, second, microsecond, tzinfo)</text>
<text text-anchor="start" x="669.49" y="-326.2" font-family="Times New Roman,serif" font-size="14.00">strptime(date_string, format)</text>
<text text-anchor="start" x="669.49" y="-309.7" font-family="Times New Roman,serif" font-size="14.00">time()</text>
<text text-anchor="start" x="669.49" y="-293.2" font-family="Times New Roman,serif" font-size="14.00">timestamp()</text>
<text text-anchor="start" x="669.49" y="-276.7" font-family="Times New Roman,serif" font-size="14.00">timetuple()</text>
<text text-anchor="start" x="669.49" y="-260.2" font-family="Times New Roman,serif" font-size="14.00">timetz()</text>
<text text-anchor="start" x="669.49" y="-243.7" font-family="Times New Roman,serif" font-size="14.00">tzname()</text>
<text text-anchor="start" x="669.49" y="-227.2" font-family="Times New Roman,serif" font-size="14.00">utcfromtimestamp(t)</text>
<text text-anchor="start" x="669.49" y="-210.7" font-family="Times New Roman,serif" font-size="14.00">utcnow()</text>
<text text-anchor="start" x="669.49" y="-194.2" font-family="Times New Roman,serif" font-size="14.00">utcoffset()</text>
<text text-anchor="start" x="669.49" y="-177.7" font-family="Times New Roman,serif" font-size="14.00">utctimetuple()</text>
</g>
<!-- _pydatetime.datetime&#45;&gt;_pydatetime.date -->
<g id="edge2" class="edge">
<title>_pydatetime.datetime&#45;&gt;_pydatetime.date</title>
<path fill="none" stroke="black" d="M858.49,-640.16C858.49,-673.72 858.49,-707.72 858.49,-739.77"/>
<polygon fill="none" stroke="black" points="854.99,-739.51 858.49,-749.51 861.99,-739.51 854.99,-739.51"/>
</g>
<!-- tinker_soft.sensor_data_poller.SensorDataPoller.SensorDataPoller -->
<g id="node15" class="node">
<title>tinker_soft.sensor_data_poller.SensorDataPoller.SensorDataPoller</title>
<polygon fill="#bbcc33" stroke="#bbcc33" points="1231.86,-792.75 1231.86,-1031.25 1607.11,-1031.25 1607.11,-792.75 1231.86,-792.75"/>
<text text-anchor="start" x="1239.86" y="-1013.95" font-family="Times New Roman,serif" font-size="14.00">tinker_soft.sensor_data_poller.SensorDataPoller.SensorDataPoller</text>
<polyline fill="none" stroke="#bbcc33" points="1231.86,-1006.75 1607.11,-1006.75"/>
<text text-anchor="start" x="1386.86" y="-989.45" font-family="Times New Roman,serif" font-size="14.00">battery</text>
<text text-anchor="start" x="1386.86" y="-972.95" font-family="Times New Roman,serif" font-size="14.00">ble_timeout</text>
<text text-anchor="start" x="1386.86" y="-956.45" font-family="Times New Roman,serif" font-size="14.00">lock</text>
<text text-anchor="start" x="1386.86" y="-939.95" font-family="Times New Roman,serif" font-size="14.00">retries</text>
<polyline fill="none" stroke="#bbcc33" points="1231.86,-932.75 1607.11,-932.75"/>
<text text-anchor="start" x="1305.11" y="-915.45" font-family="Times New Roman,serif" font-size="14.00">battery_level()</text>
<text text-anchor="start" x="1305.11" y="-898.95" font-family="Times New Roman,serif" font-size="14.00">cache_available()</text>
<text text-anchor="start" x="1305.11" y="-882.45" font-family="Times New Roman,serif" font-size="14.00">clear_cache()</text>
<text text-anchor="start" x="1305.11" y="-865.95" font-family="Times New Roman,serif" font-size="14.00">fill_cache()</text>
<text text-anchor="start" x="1305.11" y="-849.45" font-family="Times New Roman,serif" font-size="14.00">firmware_version()</text>
<text text-anchor="start" x="1305.11" y="-832.95" font-family="Times New Roman,serif" font-size="14.00">handleNotification(handle, raw_data)</text>
<text text-anchor="start" x="1305.11" y="-816.45" font-family="Times New Roman,serif" font-size="14.00">name()</text>
<text text-anchor="start" x="1305.11" y="-799.95" font-family="Times New Roman,serif" font-size="14.00">parameter_value(parameter, read_cached)</text>
</g>
<!-- _pydatetime.datetime&#45;&gt;tinker_soft.sensor_data_poller.SensorDataPoller.SensorDataPoller -->
<g id="edge15" class="edge">
<title>_pydatetime.datetime&#45;&gt;tinker_soft.sensor_data_poller.SensorDataPoller.SensorDataPoller</title>
<path fill="none" stroke="black" d="M872.1,-640.36C883.85,-675.39 901.85,-708.06 928.99,-733 952,-754.15 1038.43,-742.42 1068.49,-751 1119.01,-765.42 1171.54,-786.03 1220.09,-807.68"/>
<polygon fill="black" stroke="black" points="1219.93,-807.61 1227.04,-806.43 1230.87,-812.54 1223.75,-813.72 1219.93,-807.61"/>
<text text-anchor="middle" x="956.74" y="-690.7" font-family="Times New Roman,serif" font-size="14.00" fill="green">_last_read</text>
</g>
<!-- _pydatetime.datetime&#45;&gt;tinker_soft.sensor_data_poller.SensorDataPoller.SensorDataPoller -->
<g id="edge16" class="edge">
<title>_pydatetime.datetime&#45;&gt;tinker_soft.sensor_data_poller.SensorDataPoller.SensorDataPoller</title>
<path fill="none" stroke="black" d="M1031.07,-640.45C1059.99,-673.27 1091.04,-705.23 1122.99,-733 1152.76,-758.88 1186.78,-783.2 1220.91,-805.05"/>
<polygon fill="black" stroke="black" points="1220.6,-804.86 1227.81,-804.68 1230.74,-811.27 1223.53,-811.44 1220.6,-804.86"/>
<text text-anchor="middle" x="1161.24" y="-690.7" font-family="Times New Roman,serif" font-size="14.00" fill="green">_fw_last_read</text>
</g>
<!-- _pydatetime.timedelta -->
<g id="node3" class="node">
<title>_pydatetime.timedelta</title>
<polygon fill="grey" stroke="grey" points="319.36,-352 319.36,-458.5 457.61,-458.5 457.61,-352 319.36,-352"/>
<text text-anchor="start" x="327.36" y="-441.2" font-family="Times New Roman,serif" font-size="14.00">_pydatetime.timedelta</text>
<polyline fill="none" stroke="grey" points="319.36,-434 457.61,-434"/>
<text text-anchor="start" x="350.99" y="-416.7" font-family="Times New Roman,serif" font-size="14.00">days</text>
<text text-anchor="start" x="350.99" y="-400.2" font-family="Times New Roman,serif" font-size="14.00">microseconds</text>
<text text-anchor="start" x="350.99" y="-383.7" font-family="Times New Roman,serif" font-size="14.00">seconds</text>
<polyline fill="none" stroke="grey" points="319.36,-376.5 457.61,-376.5"/>
<text text-anchor="start" x="347.24" y="-359.2" font-family="Times New Roman,serif" font-size="14.00">total_seconds()</text>
</g>
<!-- _pydatetime.timedelta&#45;&gt;builtins.object -->
<g id="edge3" class="edge">
<title>_pydatetime.timedelta&#45;&gt;builtins.object</title>
<path fill="none" stroke="black" d="M404.65,-458.89C424.72,-526.07 458.71,-646.14 478.49,-751 505.19,-892.61 450.6,-944.84 516.49,-1073 522.16,-1084.03 530.69,-1094.06 539.79,-1102.65"/>
<polygon fill="none" stroke="black" points="537.29,-1105.11 547.1,-1109.12 541.93,-1099.87 537.29,-1105.11"/>
</g>
<!-- _pydatetime.timedelta&#45;&gt;tinker_soft.sensor_data_poller.SensorDataPoller.SensorDataPoller -->
<g id="edge17" class="edge">
<title>_pydatetime.timedelta&#45;&gt;tinker_soft.sensor_data_poller.SensorDataPoller.SensorDataPoller</title>
<path fill="none" stroke="black" d="M393.36,-458.89C401.05,-511.95 420.82,-592.66 471.49,-640.5 578.42,-741.49 644.37,-707.56 789.24,-733 911.73,-754.51 947.86,-720.71 1068.49,-751 1119.04,-763.7 1171.3,-783.46 1219.55,-804.82"/>
<polygon fill="black" stroke="black" points="1219.63,-804.86 1226.74,-803.66 1230.58,-809.77 1223.47,-810.96 1219.63,-804.86"/>
<text text-anchor="middle" x="832.36" y="-690.7" font-family="Times New Roman,serif" font-size="14.00" fill="green">_cache_timeout</text>
</g>
<!-- builtins.NoneType -->
<g id="node4" class="node">
<title>builtins.NoneType</title>
<polygon fill="grey" stroke="grey" points="1647.24,-34.25 1647.24,-83.25 1763.74,-83.25 1763.74,-34.25 1647.24,-34.25"/>
<text text-anchor="start" x="1655.24" y="-65.95" font-family="Times New Roman,serif" font-size="14.00">builtins.NoneType</text>
<polyline fill="none" stroke="grey" points="1647.24,-58.75 1763.74,-58.75"/>
<polyline fill="none" stroke="grey" points="1647.24,-58.75 1763.74,-58.75"/>
<text text-anchor="start" x="1703.61" y="-41.45" font-family="Times New Roman,serif" font-size="14.00"> </text>
</g>
<!-- builtins.NoneType&#45;&gt;_pydatetime.datetime -->
<g id="edge40" class="edge">
<title>builtins.NoneType&#45;&gt;_pydatetime.datetime</title>
<path fill="none" stroke="black" d="M1646.79,-64.82C1512.72,-77.18 1186.99,-111.73 1067.28,-169.13"/>
<polygon fill="none" stroke="black" points="1067.15,-169.2 1063.66,-175.51 1056.49,-174.72 1059.98,-168.41 1067.15,-169.2"/>
<text text-anchor="middle" x="1170.31" y="-138.7" font-family="Times New Roman,serif" font-size="14.00" fill="green">_tzinfo</text>
</g>
<!-- builtins.NoneType&#45;&gt;builtins.object -->
<g id="edge4" class="edge">
<title>builtins.NoneType&#45;&gt;builtins.object</title>
<path fill="none" stroke="black" d="M1764.02,-63.62C1881.4,-72.81 2138.35,-100.6 2185.49,-170 2302.98,-342.98 2266.79,-447.84 2185.49,-640.5 2117.3,-802.05 2011.08,-933.15 1616.49,-1073 1524.66,-1105.55 846.8,-1126.73 641.95,-1132.44"/>
<polygon fill="none" stroke="black" points="641.98,-1128.94 632.08,-1132.72 642.17,-1135.94 641.98,-1128.94"/>
</g>
<!-- builtins.NoneType&#45;&gt;tinker_soft.sensor_data_poller.SensorDataPoller.SensorDataPoller -->
<g id="edge18" class="edge">
<title>builtins.NoneType&#45;&gt;tinker_soft.sensor_data_poller.SensorDataPoller.SensorDataPoller</title>
<path fill="none" stroke="black" d="M1646.84,-62.68C1579.44,-69.73 1473.1,-93.15 1433.99,-170 1381.62,-272.89 1395.54,-595.61 1408.55,-779.43"/>
<polygon fill="black" stroke="black" points="1408.56,-779.56 1412.98,-785.25 1409.42,-791.53 1405,-785.83 1408.56,-779.56"/>
<text text-anchor="middle" x="1452.74" y="-400.2" font-family="Times New Roman,serif" font-size="14.00" fill="green">_cache</text>
</g>
<!-- builtins.NoneType&#45;&gt;tinker_soft.sensor_data_poller.SensorDataPoller.SensorDataPoller -->
<g id="edge19" class="edge">
<title>builtins.NoneType&#45;&gt;tinker_soft.sensor_data_poller.SensorDataPoller.SensorDataPoller</title>
<path fill="none" stroke="black" d="M1646.93,-74.06C1599.59,-89.14 1536.31,-118.13 1507.99,-170 1457.73,-262.05 1485.46,-536.57 1471.49,-640.5 1465.35,-686.11 1456.48,-735.65 1447.8,-779.72"/>
<polygon fill="black" stroke="black" points="1447.82,-779.65 1450.57,-786.31 1445.47,-791.42 1442.72,-784.75 1447.82,-779.65"/>
<text text-anchor="middle" x="1526.74" y="-400.2" font-family="Times New Roman,serif" font-size="14.00" fill="green">_cache</text>
</g>
<!-- builtins.NoneType&#45;&gt;tinker_soft.sensor_data_poller.SensorDataPoller.SensorDataPoller -->
<g id="edge20" class="edge">
<title>builtins.NoneType&#45;&gt;tinker_soft.sensor_data_poller.SensorDataPoller.SensorDataPoller</title>
<path fill="none" stroke="black" d="M1665.2,-83.7C1636.62,-103.08 1600.22,-133.17 1581.99,-170 1535.45,-263.98 1572.11,-539.07 1545.49,-640.5 1533.02,-687.99 1512.51,-737.4 1491.63,-780.79"/>
<polygon fill="black" stroke="black" points="1491.68,-780.68 1492.65,-787.82 1486.42,-791.46 1485.46,-784.31 1491.68,-780.68"/>
<text text-anchor="middle" x="1609.74" y="-400.2" font-family="Times New Roman,serif" font-size="14.00" fill="green">_last_read</text>
</g>
<!-- builtins.NoneType&#45;&gt;tinker_soft.sensor_data_poller.SensorDataPoller.SensorDataPoller -->
<g id="edge21" class="edge">
<title>builtins.NoneType&#45;&gt;tinker_soft.sensor_data_poller.SensorDataPoller.SensorDataPoller</title>
<path fill="none" stroke="black" d="M1697.19,-83.51C1689.84,-105.62 1679.44,-139.63 1673.99,-170 1636.88,-376.43 1714.87,-445.56 1637.49,-640.5 1617.19,-691.62 1583.7,-740.64 1548.98,-782.58"/>
<polygon fill="black" stroke="black" points="1548.92,-782.65 1548.11,-789.82 1541.19,-791.83 1541.99,-784.67 1548.92,-782.65"/>
<text text-anchor="middle" x="1701.74" y="-400.2" font-family="Times New Roman,serif" font-size="14.00" fill="green">_last_read</text>
</g>
<!-- builtins.NoneType&#45;&gt;tinker_soft.sensor_data_poller.SensorDataPoller.SensorDataPoller -->
<g id="edge22" class="edge">
<title>builtins.NoneType&#45;&gt;tinker_soft.sensor_data_poller.SensorDataPoller.SensorDataPoller</title>
<path fill="none" stroke="black" d="M1712.23,-83.59C1718.12,-105.76 1726.24,-139.81 1729.49,-170 1740.67,-273.96 1772.75,-545.32 1729.49,-640.5 1704.37,-695.74 1661.79,-744.11 1616.09,-784.08"/>
<polygon fill="black" stroke="black" points="1616.09,-784.08 1614.14,-791.03 1606.98,-791.9 1608.93,-784.95 1616.09,-784.08"/>
<text text-anchor="middle" x="1789.7" y="-400.2" font-family="Times New Roman,serif" font-size="14.00" fill="green">_fw_last_read</text>
</g>
<!-- builtins.NoneType&#45;&gt;tinker_soft.sensor_data_poller.SensorDataPoller.SensorDataPoller -->
<g id="edge23" class="edge">
<title>builtins.NoneType&#45;&gt;tinker_soft.sensor_data_poller.SensorDataPoller.SensorDataPoller</title>
<path fill="none" stroke="black" d="M1748.36,-83.71C1777.79,-102.81 1814.49,-132.55 1831.49,-170 1874.69,-265.21 1878.36,-547.04 1831.49,-640.5 1787.79,-727.61 1701.43,-790.75 1619.01,-834.01"/>
<polygon fill="black" stroke="black" points="1618.88,-834.07 1615.38,-840.38 1608.21,-839.57 1611.72,-833.26 1618.88,-834.07"/>
<text text-anchor="middle" x="1917.03" y="-400.2" font-family="Times New Roman,serif" font-size="14.00" fill="green">_firmware_version</text>
</g>
<!-- builtins.NoneType&#45;&gt;tinker_soft.sensor_data_poller.SensorDataPoller.SensorDataPoller -->
<g id="edge24" class="edge">
<title>builtins.NoneType&#45;&gt;tinker_soft.sensor_data_poller.SensorDataPoller.SensorDataPoller</title>
<path fill="none" stroke="black" d="M1764.12,-65.39C1827.67,-74.99 1926.2,-100.81 1972.49,-170 2030.62,-256.9 2025.33,-550.28 1972.49,-640.5 1898.7,-766.45 1746.25,-835 1620.07,-871.55"/>
<polygon fill="black" stroke="black" points="1619.96,-871.58 1615.28,-877.06 1608.42,-874.85 1613.1,-869.37 1619.96,-871.58"/>
<text text-anchor="middle" x="2065.88" y="-400.2" font-family="Times New Roman,serif" font-size="14.00" fill="green">_firmware_version</text>
</g>
<!-- builtins.NoneType&#45;&gt;tinker_soft.sensor_data_poller.SensorDataPoller.SensorDataPoller -->
<g id="edge25" class="edge">
<title>builtins.NoneType&#45;&gt;tinker_soft.sensor_data_poller.SensorDataPoller.SensorDataPoller</title>
<path fill="none" stroke="black" d="M1763.91,-66.53C1867.82,-79.91 2077.97,-113.45 2121.49,-170 2153.37,-211.43 2148.72,-595.88 2121.49,-640.5 2017.72,-810.49 1788.52,-873.94 1620.11,-897.47"/>
<polygon fill="black" stroke="black" points="1620.12,-897.46 1614.71,-902.23 1608.23,-899.07 1613.64,-894.3 1620.12,-897.46"/>
<text text-anchor="middle" x="2162.44" y="-400.2" font-family="Times New Roman,serif" font-size="14.00" fill="green">battery</text>
</g>
<!-- builtins.int.denominator -->
<g id="node5" class="node">
<title>builtins.int.denominator</title>
<polygon fill="grey" stroke="grey" points="233.86,-887.5 233.86,-936.5 363.11,-936.5 363.11,-887.5 233.86,-887.5"/>
<text text-anchor="start" x="241.86" y="-919.2" font-family="Times New Roman,serif" font-size="14.00">builtins.denominator</text>
<polyline fill="none" stroke="grey" points="233.86,-912 363.11,-912"/>
<polyline fill="none" stroke="grey" points="233.86,-912 363.11,-912"/>
<text text-anchor="start" x="296.61" y="-894.7" font-family="Times New Roman,serif" font-size="14.00"> </text>
</g>
<!-- builtins.int.denominator&#45;&gt;builtins.object -->
<g id="edge6" class="edge">
<title>builtins.int.denominator&#45;&gt;builtins.object</title>
<path fill="none" stroke="black" d="M303,-936.86C310.87,-971.87 330.46,-1036.91 372.49,-1073 415.29,-1109.76 479.1,-1124.4 525.34,-1130.22"/>
<polygon fill="none" stroke="black" points="524.85,-1133.68 535.18,-1131.34 525.65,-1126.73 524.85,-1133.68"/>
</g>
<!-- builtins.int.imag -->
<g id="node6" class="node">
<title>builtins.int.imag</title>
<polygon fill="grey" stroke="grey" points="381.49,-887.5 381.49,-936.5 469.49,-936.5 469.49,-887.5 381.49,-887.5"/>
<text text-anchor="start" x="389.49" y="-919.2" font-family="Times New Roman,serif" font-size="14.00">builtins.imag</text>
<polyline fill="none" stroke="grey" points="381.49,-912 469.49,-912"/>
<polyline fill="none" stroke="grey" points="381.49,-912 469.49,-912"/>
<text text-anchor="start" x="423.61" y="-894.7" font-family="Times New Roman,serif" font-size="14.00"> </text>
</g>
<!-- builtins.int.imag&#45;&gt;builtins.object -->
<g id="edge7" class="edge">
<title>builtins.int.imag&#45;&gt;builtins.object</title>
<path fill="none" stroke="black" d="M426.99,-936.71C430.58,-974.24 442.7,-1047.62 483.49,-1092 494.82,-1104.33 510.36,-1113.17 525.8,-1119.45"/>
<polygon fill="none" stroke="black" points="524.42,-1122.66 535.01,-1122.87 526.86,-1116.1 524.42,-1122.66"/>
</g>
<!-- builtins.int -->
<g id="node7" class="node">
<title>builtins.int</title>
<polygon fill="grey" stroke="grey" points="614.99,-0.5 614.99,-117 729.99,-117 729.99,-0.5 614.99,-0.5"/>
<text text-anchor="start" x="643.24" y="-99.7" font-family="Times New Roman,serif" font-size="14.00">builtins.int</text>
<polyline fill="none" stroke="grey" points="614.99,-92.5 729.99,-92.5"/>
<polyline fill="none" stroke="grey" points="614.99,-92.5 729.99,-92.5"/>
<text text-anchor="start" x="622.99" y="-76.2" font-family="Times New Roman,serif" font-style="italic" font-size="14.00">as_integer_ratio</text>
<text text-anchor="start" x="712.99" y="-76.2" font-family="Times New Roman,serif" font-size="14.00">()</text>
<text text-anchor="start" x="622.99" y="-62.2" font-family="Times New Roman,serif" font-style="italic" font-size="14.00">bit_count</text>
<text text-anchor="start" x="673.99" y="-62.2" font-family="Times New Roman,serif" font-size="14.00">()</text>
<text text-anchor="start" x="622.99" y="-48.2" font-family="Times New Roman,serif" font-style="italic" font-size="14.00">bit_length</text>
<text text-anchor="start" x="677.74" y="-48.2" font-family="Times New Roman,serif" font-size="14.00">()</text>
<text text-anchor="start" x="622.99" y="-34.2" font-family="Times New Roman,serif" font-style="italic" font-size="14.00">conjugate</text>
<text text-anchor="start" x="676.24" y="-34.2" font-family="Times New Roman,serif" font-size="14.00">()</text>
<text text-anchor="start" x="622.99" y="-20.2" font-family="Times New Roman,serif" font-style="italic" font-size="14.00">is_integer</text>
<text text-anchor="start" x="676.99" y="-20.2" font-family="Times New Roman,serif" font-size="14.00">()</text>
<text text-anchor="start" x="622.99" y="-6.2" font-family="Times New Roman,serif" font-style="italic" font-size="14.00">to_bytes</text>
<text text-anchor="start" x="667.99" y="-6.2" font-family="Times New Roman,serif" font-size="14.00">()</text>
</g>
<!-- builtins.int&#45;&gt;_pydatetime.date -->
<g id="edge26" class="edge">
<title>builtins.int&#45;&gt;_pydatetime.date</title>
<path fill="none" stroke="black" d="M614.74,-81.32C576.76,-98.89 530.06,-127.77 507.49,-170 458.2,-262.21 475.96,-540.81 507.49,-640.5 522.63,-688.41 529.13,-707.61 572.49,-733 637.39,-771.01 677.49,-716.4 747.74,-751"/>
<polygon fill="black" stroke="black" points="747.48,-750.86 754.67,-750.23 758.01,-756.63 750.83,-757.25 747.48,-750.86"/>
<text text-anchor="middle" x="535.99" y="-400.2" font-family="Times New Roman,serif" font-size="14.00" fill="green">_hashcode</text>
</g>
<!-- builtins.int&#45;&gt;_pydatetime.date -->
<g id="edge27" class="edge">
<title>builtins.int&#45;&gt;_pydatetime.date</title>
<path fill="none" stroke="black" d="M622.49,-117.42C611.44,-133.43 601.3,-151.52 595.49,-170 576.71,-229.67 557.74,-687.32 600.49,-733 621.18,-755.12 703.68,-737.61 746.94,-751.79"/>
<polygon fill="black" stroke="black" points="747,-751.82 754.11,-750.65 757.93,-756.77 750.81,-757.94 747,-751.82"/>
<text text-anchor="middle" x="623.99" y="-400.2" font-family="Times New Roman,serif" font-size="14.00" fill="green">_hashcode</text>
</g>
<!-- builtins.int&#45;&gt;_pydatetime.datetime -->
<g id="edge28" class="edge">
<title>builtins.int&#45;&gt;_pydatetime.datetime</title>
<path fill="none" stroke="black" d="M716.72,-117.31C720.85,-123.35 724.85,-129.48 728.49,-135.5 733.09,-143.11 737.65,-150.91 742.17,-158.84"/>
<polygon fill="black" stroke="black" points="742.2,-158.89 748.63,-162.15 748.09,-169.34 741.66,-166.08 742.2,-158.89"/>
<text text-anchor="middle" x="765.18" y="-138.7" font-family="Times New Roman,serif" font-size="14.00" fill="green">_hashcode</text>
</g>
<!-- builtins.int&#45;&gt;_pydatetime.datetime -->
<g id="edge29" class="edge">
<title>builtins.int&#45;&gt;_pydatetime.datetime</title>
<path fill="none" stroke="black" d="M730.23,-82.48C754.4,-94.75 780.72,-112.24 797.49,-135.5 802.87,-142.97 807.79,-150.84 812.29,-159"/>
<polygon fill="black" stroke="black" points="812.21,-158.85 818.53,-162.33 817.74,-169.5 811.43,-166.02 812.21,-158.85"/>
<text text-anchor="middle" x="834.19" y="-138.7" font-family="Times New Roman,serif" font-size="14.00" fill="green">_hashcode</text>
</g>
<!-- builtins.int&#45;&gt;_pydatetime.datetime -->
<g id="edge30" class="edge">
<title>builtins.int&#45;&gt;_pydatetime.datetime</title>
<path fill="none" stroke="black" d="M730.36,-65.15C775.77,-72.77 836.2,-91.16 866.49,-135.5 871.38,-142.67 875.52,-150.21 879,-158.04"/>
<polygon fill="black" stroke="black" points="879.03,-158.12 884.95,-162.24 883.43,-169.29 877.51,-165.17 879.03,-158.12"/>
<text text-anchor="middle" x="888.15" y="-138.7" font-family="Times New Roman,serif" font-size="14.00" fill="green">_fold</text>
</g>
<!-- builtins.int&#45;&gt;_pydatetime.datetime -->
<g id="edge31" class="edge">
<title>builtins.int&#45;&gt;_pydatetime.datetime</title>
<path fill="none" stroke="black" d="M646.31,-117.32C644.08,-128.92 643.98,-140.94 647.99,-152 650.35,-158.54 652.97,-165.02 655.82,-171.45"/>
<polygon fill="black" stroke="black" points="655.72,-171.24 661.88,-175 660.79,-182.12 654.63,-178.37 655.72,-171.24"/>
<text text-anchor="middle" x="662.24" y="-138.7" font-family="Times New Roman,serif" font-size="14.00" fill="green">_fold</text>
</g>
<!-- builtins.int&#45;&gt;_pydatetime.datetime -->
<g id="edge32" class="edge">
<title>builtins.int&#45;&gt;_pydatetime.datetime</title>
<path fill="none" stroke="black" d="M684.09,-117.31C687.29,-129.02 691.23,-141.09 695.99,-152 696.94,-154.19 697.91,-156.38 698.9,-158.57"/>
<polygon fill="black" stroke="black" points="698.91,-158.6 705.07,-162.36 703.96,-169.49 697.81,-165.73 698.91,-158.6"/>
<text text-anchor="middle" x="710.24" y="-138.7" font-family="Times New Roman,serif" font-size="14.00" fill="green">_fold</text>
</g>
<!-- builtins.int&#45;&gt;_pydatetime.timedelta -->
<g id="edge33" class="edge">
<title>builtins.int&#45;&gt;_pydatetime.timedelta</title>
<path fill="none" stroke="black" d="M614.75,-60.22C556.87,-64.04 469.74,-79.54 422.49,-135.5 375.14,-191.57 372.88,-279.15 378.33,-338.98"/>
<polygon fill="black" stroke="black" points="378.32,-338.85 382.92,-344.41 379.55,-350.78 374.96,-345.23 378.32,-338.85"/>
<text text-anchor="middle" x="450.99" y="-138.7" font-family="Times New Roman,serif" font-size="14.00" fill="green">_hashcode</text>
</g>
<!-- builtins.int&#45;&gt;builtins.object -->
<g id="edge5" class="edge">
<title>builtins.int&#45;&gt;builtins.object</title>
<path fill="none" stroke="black" d="M614.68,-65.56C510.96,-77.45 300.92,-108.76 267.49,-170 217.21,-262.09 290.84,-556.13 228.49,-640.5 215.68,-657.82 195.56,-640.66 183.49,-658.5 157.53,-696.84 78.71,-919.5 191.49,-1073 230.07,-1125.52 425.85,-1133.73 525.31,-1134.43"/>
<polygon fill="none" stroke="black" points="525.13,-1137.93 535.14,-1134.48 525.16,-1130.93 525.13,-1137.93"/>
</g>
<!-- tinker_soft.main.DiscoveryClient -->
<g id="node14" class="node">
<title>tinker_soft.main.DiscoveryClient</title>
<polygon fill="#77aadd" stroke="#77aadd" points="189.36,-659 189.36,-732.5 387.61,-732.5 387.61,-659 189.36,-659"/>
<text text-anchor="start" x="197.36" y="-715.2" font-family="Times New Roman,serif" font-size="14.00">tinker_soft.main.DiscoveryClient</text>
<polyline fill="none" stroke="#77aadd" points="189.36,-708 387.61,-708"/>
<text text-anchor="start" x="247.99" y="-690.7" font-family="Times New Roman,serif" font-size="14.00">discovery_port</text>
<polyline fill="none" stroke="#77aadd" points="189.36,-683.5 387.61,-683.5"/>
<text text-anchor="start" x="272.36" y="-666.2" font-family="Times New Roman,serif" font-size="14.00">start()</text>
</g>
<!-- builtins.int&#45;&gt;tinker_soft.main.DiscoveryClient -->
<g id="edge41" class="edge">
<title>builtins.int&#45;&gt;tinker_soft.main.DiscoveryClient</title>
<path fill="none" stroke="black" d="M614.66,-66.51C528.75,-77.53 372.8,-101.58 328.49,-135.5 248.87,-196.44 271.48,-521.41 283.35,-646.05"/>
<polygon fill="none" stroke="black" points="283.35,-646.01 287.92,-651.59 284.52,-657.95 279.95,-652.37 283.35,-646.01"/>
<text text-anchor="middle" x="368.99" y="-138.7" font-family="Times New Roman,serif" font-size="14.00" fill="green">discovery_port</text>
</g>
<!-- builtins.int&#45;&gt;tinker_soft.sensor_data_poller.SensorDataPoller.SensorDataPoller -->
<g id="edge34" class="edge">
<title>builtins.int&#45;&gt;tinker_soft.sensor_data_poller.SensorDataPoller.SensorDataPoller</title>
<path fill="none" stroke="black" d="M730.43,-62.35C861.82,-69.55 1176.3,-94.45 1244.49,-170 1314.81,-247.92 1257.73,-539.41 1285.99,-640.5 1299.31,-688.19 1321.01,-737.55 1343.07,-780.84"/>
<polygon fill="black" stroke="black" points="1343.07,-780.84 1349.37,-784.33 1348.57,-791.5 1342.27,-788 1343.07,-780.84"/>
<text text-anchor="middle" x="1304.74" y="-400.2" font-family="Times New Roman,serif" font-size="14.00" fill="green">battery</text>
</g>
<!-- builtins.int&#45;&gt;tinker_soft.sensor_data_poller.SensorDataPoller.SensorDataPoller -->
<g id="edge35" class="edge">
<title>builtins.int&#45;&gt;tinker_soft.sensor_data_poller.SensorDataPoller.SensorDataPoller</title>
<path fill="none" stroke="black" d="M730.28,-60.33C875.35,-63.13 1248.68,-79.21 1323.49,-170 1356.8,-210.44 1347.13,-588.7 1354.99,-640.5 1361.93,-686.32 1372.74,-735.82 1383.53,-779.79"/>
<polygon fill="black" stroke="black" points="1383.54,-779.81 1388.87,-784.67 1386.43,-791.46 1381.11,-786.6 1383.54,-779.81"/>
<text text-anchor="middle" x="1373.74" y="-400.2" font-family="Times New Roman,serif" font-size="14.00" fill="green">battery</text>
</g>
<!-- builtins.int.numerator -->
<g id="node8" class="node">
<title>builtins.int.numerator</title>
<polygon fill="grey" stroke="grey" points="525.24,-887.5 525.24,-936.5 641.74,-936.5 641.74,-887.5 525.24,-887.5"/>
<text text-anchor="start" x="533.24" y="-919.2" font-family="Times New Roman,serif" font-size="14.00">builtins.numerator</text>
<polyline fill="none" stroke="grey" points="525.24,-912 641.74,-912"/>
<polyline fill="none" stroke="grey" points="525.24,-912 641.74,-912"/>
<text text-anchor="start" x="581.61" y="-894.7" font-family="Times New Roman,serif" font-size="14.00"> </text>
</g>
<!-- builtins.int.numerator&#45;&gt;builtins.object -->
<g id="edge8" class="edge">
<title>builtins.int.numerator&#45;&gt;builtins.object</title>
<path fill="none" stroke="black" d="M583.49,-936.65C583.49,-975.6 583.49,-1053.42 583.49,-1098.84"/>
<polygon fill="none" stroke="black" points="579.99,-1098.67 583.49,-1108.67 586.99,-1098.67 579.99,-1098.67"/>
</g>
<!-- builtins.int.real -->
<g id="node10" class="node">
<title>builtins.int.real</title>
<polygon fill="grey" stroke="grey" points="660.24,-887.5 660.24,-936.5 740.74,-936.5 740.74,-887.5 660.24,-887.5"/>
<text text-anchor="start" x="668.24" y="-919.2" font-family="Times New Roman,serif" font-size="14.00">builtins.real</text>
<polyline fill="none" stroke="grey" points="660.24,-912 740.74,-912"/>
<polyline fill="none" stroke="grey" points="660.24,-912 740.74,-912"/>
<text text-anchor="start" x="698.61" y="-894.7" font-family="Times New Roman,serif" font-size="14.00"> </text>
</g>
<!-- builtins.int.real&#45;&gt;builtins.object -->
<g id="edge9" class="edge">
<title>builtins.int.real&#45;&gt;builtins.object</title>
<path fill="none" stroke="black" d="M697.05,-936.9C691.48,-969.71 678.18,-1029.56 650.49,-1073 643.55,-1083.87 634.19,-1094.04 624.66,-1102.84"/>
<polygon fill="none" stroke="black" points="622.63,-1099.96 617.44,-1109.2 627.26,-1105.21 622.63,-1099.96"/>
</g>
<!-- builtins.tuple -->
<g id="node11" class="node">
<title>builtins.tuple</title>
<polygon fill="grey" stroke="grey" points="82.86,-28.5 82.86,-89 170.11,-89 170.11,-28.5 82.86,-28.5"/>
<text text-anchor="start" x="90.86" y="-71.7" font-family="Times New Roman,serif" font-size="14.00">builtins.tuple</text>
<polyline fill="none" stroke="grey" points="82.86,-64.5 170.11,-64.5"/>
<polyline fill="none" stroke="grey" points="82.86,-64.5 170.11,-64.5"/>
<text text-anchor="start" x="106.99" y="-48.2" font-family="Times New Roman,serif" font-style="italic" font-size="14.00">count</text>
<text text-anchor="start" x="136.99" y="-48.2" font-family="Times New Roman,serif" font-size="14.00">()</text>
<text text-anchor="start" x="106.99" y="-34.2" font-family="Times New Roman,serif" font-style="italic" font-size="14.00">index</text>
<text text-anchor="start" x="136.24" y="-34.2" font-family="Times New Roman,serif" font-size="14.00">()</text>
</g>
<!-- builtins.tuple&#45;&gt;_pydatetime.date -->
<g id="edge36" class="edge">
<title>builtins.tuple&#45;&gt;_pydatetime.date</title>
<path fill="none" stroke="black" d="M122.62,-89.37C111.87,-185.97 92.47,-494.08 258.74,-640.5 281.9,-660.9 367.55,-647.73 396.49,-658.5 452.86,-679.49 452.55,-713.57 509.49,-733 556.94,-749.19 685.65,-727.33 747.45,-751.48"/>
<polygon fill="black" stroke="black" points="747.23,-751.37 754.37,-750.35 758.06,-756.55 750.92,-757.57 747.23,-751.37"/>
<text text-anchor="middle" x="284.61" y="-400.2" font-family="Times New Roman,serif" font-size="14.00" fill="green">__slots__</text>
</g>
<!-- builtins.tuple&#45;&gt;_pydatetime.datetime -->
<g id="edge37" class="edge">
<title>builtins.tuple&#45;&gt;_pydatetime.datetime</title>
<path fill="none" stroke="black" d="M153.64,-89.37C175.59,-111.07 208.53,-138.92 243.74,-152 327.93,-183.27 566.27,-131.66 647.49,-170 648.2,-170.34 648.91,-170.68 649.63,-171.02"/>
<polygon fill="black" stroke="black" points="649.59,-171 656.75,-170.2 660.25,-176.51 653.09,-177.31 649.59,-171"/>
<text text-anchor="middle" x="269.61" y="-138.7" font-family="Times New Roman,serif" font-size="14.00" fill="green">__slots__</text>
</g>
<!-- builtins.tuple&#45;&gt;_pydatetime.timedelta -->
<g id="edge38" class="edge">
<title>builtins.tuple&#45;&gt;_pydatetime.timedelta</title>
<path fill="none" stroke="black" d="M124.68,-89.24C125.06,-109.19 128.87,-134.92 143.74,-152 160.28,-171 176.76,-155.67 197.49,-170 262.56,-215 317.24,-288.25 351.19,-340.86"/>
<polygon fill="black" stroke="black" points="351.19,-340.87 357.79,-343.79 357.63,-351 351.04,-348.08 351.19,-340.87"/>
<text text-anchor="middle" x="169.61" y="-138.7" font-family="Times New Roman,serif" font-size="14.00" fill="green">__slots__</text>
</g>
<!-- builtins.tuple&#45;&gt;builtins.object -->
<g id="edge10" class="edge">
<title>builtins.tuple&#45;&gt;builtins.object</title>
<path fill="none" stroke="black" d="M114.78,-89.07C64.06,-221.41 -123.1,-769.73 128.49,-1073 153.48,-1103.13 408.07,-1122.94 525.15,-1130.52"/>
<polygon fill="none" stroke="black" points="524.66,-1134 534.86,-1131.15 525.11,-1127.01 524.66,-1134"/>
</g>
<!-- builtins.type -->
<g id="node12" class="node">
<title>builtins.type</title>
<polygon fill="grey" stroke="grey" points="975.74,-887.5 975.74,-936.5 1059.24,-936.5 1059.24,-887.5 975.74,-887.5"/>
<text text-anchor="start" x="983.74" y="-919.2" font-family="Times New Roman,serif" font-size="14.00">builtins.type</text>
<polyline fill="none" stroke="grey" points="975.74,-912 1059.24,-912"/>
<polyline fill="none" stroke="grey" points="975.74,-912 1059.24,-912"/>
<text text-anchor="start" x="1002.11" y="-895.7" font-family="Times New Roman,serif" font-style="italic" font-size="14.00">mro</text>
<text text-anchor="start" x="1023.86" y="-895.7" font-family="Times New Roman,serif" font-size="14.00">()</text>
</g>
<!-- builtins.type&#45;&gt;builtins.object -->
<g id="edge11" class="edge">
<title>builtins.type&#45;&gt;builtins.object</title>
<path fill="none" stroke="black" d="M1017.4,-936.99C1015.88,-972.47 1007.45,-1038.46 967.49,-1073 919.75,-1114.26 736.94,-1127.79 641.8,-1132.09"/>
<polygon fill="none" stroke="black" points="641.72,-1128.59 631.88,-1132.51 642.02,-1135.58 641.72,-1128.59"/>
</g>
<!-- threading.lock -->
<g id="node13" class="node">
<title>threading.lock</title>
<polygon fill="grey" stroke="grey" points="1073.74,-368 1073.74,-442.5 1235.24,-442.5 1235.24,-368 1073.74,-368"/>
<text text-anchor="start" x="1115.49" y="-425.2" font-family="Times New Roman,serif" font-size="14.00">threading.lock</text>
<polyline fill="none" stroke="grey" points="1073.74,-418 1235.24,-418"/>
<polyline fill="none" stroke="grey" points="1073.74,-418 1235.24,-418"/>
<text text-anchor="start" x="1081.74" y="-401.7" font-family="Times New Roman,serif" font-size="14.00">acquire(blocking, timeout)</text>
<text text-anchor="start" x="1081.74" y="-387.7" font-family="Times New Roman,serif" font-size="14.00">locked()</text>
<text text-anchor="start" x="1081.74" y="-373.7" font-family="Times New Roman,serif" font-style="italic" font-size="14.00">release</text>
<text text-anchor="start" x="1120.74" y="-373.7" font-family="Times New Roman,serif" font-size="14.00">()</text>
</g>
<!-- threading.lock&#45;&gt;builtins.object -->
<g id="edge12" class="edge">
<title>threading.lock&#45;&gt;builtins.object</title>
<path fill="none" stroke="black" d="M1163.02,-442.84C1186.74,-554.75 1240.91,-895.54 1068.49,-1073 1039.16,-1103.18 764.12,-1123.21 641.73,-1130.7"/>
<polygon fill="none" stroke="black" points="641.66,-1127.2 631.89,-1131.3 642.08,-1134.19 641.66,-1127.2"/>
</g>
<!-- threading.lock&#45;&gt;tinker_soft.sensor_data_poller.SensorDataPoller.SensorDataPoller -->
<g id="edge39" class="edge">
<title>threading.lock&#45;&gt;tinker_soft.sensor_data_poller.SensorDataPoller.SensorDataPoller</title>
<path fill="none" stroke="black" d="M1156.74,-442.52C1162.04,-505.54 1179.32,-637.61 1234.24,-733 1244.19,-750.29 1256.31,-766.96 1269.55,-782.72"/>
<polygon fill="black" stroke="black" points="1269.49,-782.65 1276.44,-784.57 1277.34,-791.72 1270.39,-789.8 1269.49,-782.65"/>
<text text-anchor="middle" x="1245.86" y="-690.7" font-family="Times New Roman,serif" font-size="14.00" fill="green">lock</text>
</g>
<!-- tinker_soft.main.DiscoveryClient&#45;&gt;builtins.object -->
<g id="edge13" class="edge">
<title>tinker_soft.main.DiscoveryClient&#45;&gt;builtins.object</title>
<path fill="none" stroke="black" d="M236.8,-732.76C231.85,-738.3 227.55,-744.39 224.49,-751 194.41,-815.93 178.32,-1018.33 224.49,-1073 262.28,-1117.76 433.49,-1129.68 525.15,-1132.85"/>
<polygon fill="none" stroke="black" points="524.84,-1136.35 534.94,-1133.17 525.06,-1129.35 524.84,-1136.35"/>
</g>
<!-- tinker_soft.sensor_data_poller.SensorDataPoller.SensorDataPoller&#45;&gt;builtins.object -->
<g id="edge14" class="edge">
<title>tinker_soft.sensor_data_poller.SensorDataPoller.SensorDataPoller&#45;&gt;builtins.object</title>
<path fill="none" stroke="black" d="M1250.44,-1031.69C1208.99,-1055.57 1163.54,-1077.7 1118.49,-1092 1031.04,-1119.76 761.51,-1129.67 641.81,-1132.76"/>
<polygon fill="none" stroke="black" points="641.78,-1129.26 631.87,-1133.01 641.96,-1136.26 641.78,-1129.26"/>
</g>
</g>
</svg>
