<?xml version="1.0" encoding="UTF-8" standalone="no"?>
<!DOCTYPE svg PUBLIC "-
 "http:
<!-- Generated by graphviz version 12.2.0 (20241103.1931)
 -->
<!-- Title: packages_tinker Pages: 1 -->
<svg width="197pt" height="116pt"
 viewBox="0.00 0.00 197.25 116.00" xmlns="http:
<g id="graph0" class="graph" transform="scale(1 1) rotate(0) translate(4 112)">
<title>packages_tinker</title>
<polygon fill="white" stroke="none" points="-4,4 -4,-112 193.25,-112 193.25,4 -4,4"/>
<!-- device&#45;manager&#45;backend.app -->
<g id="node1" class="node">
<title>device&#45;manager&#45;backend.app</title>
<polygon fill="#77aadd" stroke="#77aadd" points="182.5,-36 6.75,-36 6.75,0 182.5,0 182.5,-36"/>
<text text-anchor="middle" x="94.62" y="-12.95" font-family="Times New Roman,serif" font-size="14.00">device&#45;manager&#45;backend.app</text>
</g>
<!-- device&#45;manager&#45;backend.server -->
<g id="node2" class="node">
<title>device&#45;manager&#45;backend.server</title>
<polygon fill="#77aadd" stroke="#77aadd" points="189.25,-108 0,-108 0,-72 189.25,-72 189.25,-108"/>
<text text-anchor="middle" x="94.62" y="-84.95" font-family="Times New Roman,serif" font-size="14.00">device&#45;manager&#45;backend.server</text>
</g>
<!-- device&#45;manager&#45;backend.app&#45;&gt;device&#45;manager&#45;backend.server -->
<g id="edge1" class="edge">
<title>device&#45;manager&#45;backend.app&#45;&gt;device&#45;manager&#45;backend.server</title>
<path fill="none" stroke="black" d="M94.62,-36.3C94.62,-43.68 94.62,-52.48 94.62,-60.75"/>
<polygon fill="black" stroke="black" points="94.63,-70.68 90.13,-60.68 94.63,-66.9 94.63,-60.68 94.63,-60.68 94.63,-60.68 94.63,-66.9 99.13,-60.68 94.63,-70.68"/>
</g>
</g>
</svg>
